<svg width="375" height="320" viewBox="0 0 375 320" fill="none" xmlns="http://www.w3.org/2000/svg">
<path d="M400 98.7562C400 174.695 350.527 236.256 289.5 236.256C228.473 236.256 179 174.695 179 98.7562C179 22.817 228.473 -38.7438 289.5 -38.7438C350.527 -38.7438 400 22.817 400 98.7562Z" fill="#AEC3FF" fill-opacity="0.1"/>
<path d="M239.605 298H217.936V319.669H239.605V298Z" fill="#D2DCFF"/>
<path d="M217.936 298H206V319.669H217.936V298Z" fill="#AEC3FF"/>
<path d="M217.936 301.705H206V302.34H217.936V301.705Z" fill="#86A2E2"/>
<path d="M239.605 301.705H217.936V302.34H239.605V301.705Z" fill="#AEC3FF"/>
<path d="M232.757 305.442H224.784C224.632 305.442 224.509 305.319 224.509 305.168V305.152C224.509 305 224.632 304.878 224.784 304.878H232.757C232.908 304.878 233.031 305 233.031 305.152V305.168C233.031 305.319 232.909 305.442 232.757 305.442Z" fill="#86A2E2"/>
<path d="M42.9923 280.755L38.2958 319.693H36.7557L41.4522 280.755H42.9923Z" fill="#D2DCFF"/>
<path d="M22.2371 280.754L21.7089 285.134L17.5406 319.693H16L20.1894 284.963L20.6965 280.754H22.2371Z" fill="#D2DCFF"/>
<path d="M42.9923 319.693H41.4517L40.8025 314.307L40.0326 307.922L37.4989 286.919L36.7557 280.754H38.2958L39.0606 287.096L40.8025 301.536L41.5728 307.921L42.9923 319.693Z" fill="#D2DCFF"/>
<path d="M63.7475 319.693H62.2069L58.5618 289.47L57.5105 280.754H59.051L60.1226 289.638L63.7475 319.693Z" fill="#D2DCFF"/>
<path d="M22.3123 254.725H20.7717V278.279H22.3123V254.725Z" fill="#D2DCFF"/>
<path d="M43.2436 254.725H41.7034V278.279H43.2436V254.725Z" fill="#D2DCFF"/>
<path d="M59.6975 278.279H38.5333C39.217 278.279 39.7713 278.833 39.7713 279.517C39.7713 280.201 39.217 280.755 38.5333 280.755H59.6975C60.3812 280.755 60.9355 280.201 60.9355 279.517C60.9355 278.833 60.3812 278.279 59.6975 278.279Z" fill="#D2DCFF"/>
<path d="M39.7713 279.517C39.7713 278.833 39.2169 278.279 38.5333 278.279H22.3448H20.2595C19.5759 278.279 19.0216 278.833 19.0216 279.517C19.0216 280.201 19.5759 280.755 20.2595 280.755H22.3448H38.5333C39.2169 280.755 39.7713 280.201 39.7713 279.517Z" fill="#86A2E2"/>
<path d="M44.5026 237H19.5135C18.5608 237 17.7882 237.773 17.7882 238.725V253.001C17.7882 253.953 18.5608 254.726 19.5135 254.726H44.5026C45.4554 254.726 46.228 253.953 46.228 253.001V238.725C46.2275 237.773 45.4554 237 44.5026 237Z" fill="#D2DCFF"/>
<path d="M22.2371 280.754L21.7089 285.134C21.1522 285.071 20.6438 285.013 20.1894 284.963L20.6969 280.754H22.2371Z" fill="#AEC3FF"/>
<path d="M38.2958 280.754L39.0606 287.096C38.5374 287.037 38.0166 286.978 37.4989 286.919L36.7552 280.754H38.2958Z" fill="#AEC3FF"/>
<path d="M60.1226 289.638C59.6255 289.585 59.1042 289.529 58.5618 289.47L57.5109 280.754H59.0515L60.1226 289.638Z" fill="#AEC3FF"/>
<path d="M20.7717 254.725H22.3123V257.979L20.7717 257.808V254.725Z" fill="#AEC3FF"/>
<path d="M43.2436 254.725V260.296L41.7034 260.125V254.725H43.2436Z" fill="#AEC3FF"/>
<path d="M198.825 227.707H177.207V253.998H198.825V227.707Z" fill="#D2DCFF"/>
<path d="M197.835 228.537H178.198V253.167H197.835V228.537Z" fill="#D2DCFF"/>
<path d="M178.198 246.641L184.588 240.25L187.778 243.44L193.778 237.44L197.835 241.498V253.167H178.198V246.641Z" fill="#AEC3FF"/>
<path d="M184.074 236.668C185.02 236.668 185.787 235.901 185.787 234.955C185.787 234.009 185.02 233.242 184.074 233.242C183.128 233.242 182.361 234.009 182.361 234.955C182.361 235.901 183.128 236.668 184.074 236.668Z" fill="#AEC3FF"/>
<path d="M109.633 312.049H93.5591C92.3533 312.049 91.3757 311.072 91.3757 309.866V233.807C91.3757 232.601 92.3533 231.623 93.5591 231.623H109.633V312.049Z" fill="#86A2E2"/>
<path d="M155.945 312.049H109.633V231.623H155.945C157.151 231.623 158.128 232.601 158.128 233.807V309.866C158.129 311.072 157.151 312.049 155.945 312.049Z" fill="#AEC3FF"/>
<path d="M153.074 238.314H114.688V256.866H153.074V238.314Z" fill="#D2DCFF"/>
<path d="M100.164 312.05H95.7701V319.775H100.164V312.05Z" fill="#D2DCFF"/>
<path d="M114.028 312.05H109.633V319.775H114.028V312.05Z" fill="#D2DCFF"/>
<path d="M141.601 312.05H137.207V319.775H141.601V312.05Z" fill="#D2DCFF"/>
<path d="M155.464 312.05H151.07V319.775H155.464V312.05Z" fill="#D2DCFF"/>
<path d="M141.671 254.306H127.978C127.649 254.306 127.381 254.04 127.381 253.71V253.675C127.381 253.346 127.648 253.079 127.978 253.079H141.671C142 253.079 142.268 253.345 142.268 253.675V253.71C142.268 254.04 142.001 254.306 141.671 254.306Z" fill="#AEC3FF"/>
<path d="M153.074 262.56H114.688V281.112H153.074V262.56Z" fill="#D2DCFF"/>
<path d="M141.671 278.553H127.978C127.649 278.553 127.381 278.286 127.381 277.956V277.921C127.381 277.592 127.648 277.325 127.978 277.325H141.671C142 277.325 142.268 277.592 142.268 277.921V277.956C142.268 278.286 142.001 278.553 141.671 278.553Z" fill="#AEC3FF"/>
<path d="M153.074 286.806H114.688V305.358H153.074V286.806Z" fill="#D2DCFF"/>
<path d="M141.671 302.799H127.978C127.649 302.799 127.381 302.532 127.381 302.202V302.168C127.381 301.838 127.648 301.571 127.978 301.571H141.671C142 301.571 142.268 301.838 142.268 302.168V302.202C142.268 302.532 142.001 302.799 141.671 302.799Z" fill="#AEC3FF"/>
<path d="M95.7701 312.05H100.164V314.039L95.7701 313.822V312.05Z" fill="#AEC3FF"/>
<path d="M109.633 312.05H114.028V314.724L109.633 314.507V312.05Z" fill="#AEC3FF"/>
<path d="M137.207 312.05H141.601V316.434L137.207 316.217V312.05Z" fill="#AEC3FF"/>
<path d="M155.464 312.05V317.119L151.07 316.901V312.05H155.464Z" fill="#AEC3FF"/>
<path d="M138.775 225.537H145.761C146.105 225.537 146.372 225.838 146.331 226.18L145.74 231.117C145.706 231.406 145.461 231.624 145.17 231.624H139.366C139.075 231.624 138.83 231.406 138.795 231.117L138.204 226.18C138.163 225.838 138.43 225.537 138.775 225.537Z" fill="#D2DCFF"/>
<path d="M144.666 223.522V221.278L143.323 223.829V219.685L142.268 222.294L141.213 219.685V223.829L139.869 221.278V223.522L137.912 220.376L138.775 225.537H142.268H145.761L146.623 220.376L144.666 223.522Z" fill="#6277D7"/>
<path d="M189.81 280.41L188.779 288.961L187.541 299.229L186.762 305.685L186.497 307.874L185.718 314.331L185.062 319.775H183.504L184.941 307.875L185.718 301.418L185.983 299.229L186.762 292.773V292.772L187.278 288.488L188.252 280.41H189.81Z" fill="#D2DCFF"/>
<path d="M200.242 319.775H198.685L195.214 290.997L193.936 280.41H195.494L196.833 291.508L200.242 319.775Z" fill="#D2DCFF"/>
<path d="M179.586 280.41L178.929 285.848L176.273 307.874L175.494 314.331L174.837 319.775H173.28L174.715 307.875L175.494 301.418L177.43 285.373L178.028 280.41H179.586Z" fill="#D2DCFF"/>
<path d="M190.018 319.775H188.46L186.762 305.685L185.983 299.229L184.584 287.635L183.712 280.41H185.27L186.204 288.147L186.762 292.772V292.773L187.541 299.229L190.018 319.775Z" fill="#D2DCFF"/>
<path d="M196.546 280.409H176.337C175.665 280.409 175.121 279.864 175.121 279.193V279.122C175.121 278.45 175.665 277.906 176.337 277.906H196.546C197.217 277.906 197.762 278.451 197.762 279.122V279.193C197.762 279.864 197.217 280.409 196.546 280.409Z" fill="#D2DCFF"/>
<path d="M186.801 280.409H176.337C175.665 280.409 175.121 279.864 175.121 279.193V279.122C175.121 278.45 175.665 277.906 176.337 277.906H186.801C187.472 277.906 188.017 278.451 188.017 279.122V279.193C188.017 279.864 187.472 280.409 186.801 280.409Z" fill="#86A2E2"/>
<path d="M182.948 271.82H189.934C190.278 271.82 190.545 272.121 190.504 272.463L189.913 277.4C189.879 277.689 189.634 277.907 189.343 277.907H183.539C183.248 277.907 183.003 277.689 182.968 277.4L182.377 272.463C182.336 272.121 182.603 271.82 182.948 271.82Z" fill="#D2DCFF"/>
<path d="M188.839 269.805V267.561L187.496 270.113V265.969L186.441 268.577L185.386 265.969V270.113L184.043 267.561V269.805L182.086 266.659L182.948 271.82H186.441H189.934L190.796 266.659L188.839 269.805Z" fill="#FE9ECC"/>
<path d="M179.586 280.41L178.929 285.848L177.43 285.373L178.028 280.41H179.586Z" fill="#AEC3FF"/>
<path d="M186.204 288.147L184.584 287.635L183.712 280.41H185.27L186.204 288.147Z" fill="#AEC3FF"/>
<path d="M189.81 280.41L188.779 288.961L187.278 288.488L188.252 280.41H189.81Z" fill="#AEC3FF"/>
<path d="M196.833 291.508L195.214 290.997L193.936 280.41H195.494L196.833 291.508Z" fill="#AEC3FF"/>
<path d="M238.125 262.719V281.611C238.125 282.277 237.585 282.818 236.918 282.818H214.207C213.54 282.818 213 282.277 213 281.611V262.719C213 262.052 213.541 261.512 214.207 261.512H236.918C237.585 261.512 238.125 262.052 238.125 262.719Z" fill="#D2DCFF"/>
<path d="M238.125 262.719V266.28H213V262.719C213 262.052 213.541 261.512 214.207 261.512H236.918C237.585 261.512 238.125 262.052 238.125 262.719Z" fill="#6277D7"/>
<path d="M219.809 263.024C219.465 263.024 219.186 262.745 219.186 262.401V260.623C219.186 260.279 219.465 260 219.809 260C220.154 260 220.432 260.279 220.432 260.623V262.401C220.432 262.745 220.153 263.024 219.809 263.024Z" fill="#6277D7"/>
<path d="M231.316 263.024C230.972 263.024 230.693 262.745 230.693 262.401V260.623C230.693 260.279 230.972 260 231.316 260C231.66 260 231.939 260.279 231.939 260.623V262.401C231.939 262.745 231.66 263.024 231.316 263.024Z" fill="#6277D7"/>
<path d="M220.175 275.079L222.857 272.67C222.993 272.547 223.129 272.407 223.266 272.251C223.403 272.095 223.471 271.913 223.471 271.705C223.471 271.471 223.387 271.288 223.217 271.154C223.048 271.021 222.85 270.954 222.623 270.954C222.349 270.954 222.137 271.039 221.984 271.208C221.831 271.377 221.745 271.585 221.725 271.832L220.263 271.724C220.282 271.367 220.357 271.056 220.487 270.793C220.617 270.53 220.789 270.31 221.004 270.135C221.218 269.959 221.47 269.828 221.759 269.74C222.049 269.652 222.362 269.608 222.7 269.608C223.012 269.608 223.305 269.652 223.578 269.74C223.851 269.828 224.088 269.958 224.29 270.13C224.491 270.303 224.649 270.519 224.763 270.779C224.877 271.039 224.934 271.341 224.934 271.685C224.934 271.906 224.911 272.106 224.865 272.285C224.82 272.464 224.756 272.626 224.675 272.773C224.594 272.919 224.498 273.054 224.387 273.177C224.277 273.301 224.157 273.421 224.027 273.538L221.93 275.343H224.992V276.63H220.174V275.079H220.175Z" fill="#6277D7"/>
<path d="M228.444 274.162C228.366 274.182 228.288 274.198 228.211 274.211C228.133 274.224 228.051 274.231 227.967 274.231C227.641 274.231 227.346 274.172 227.079 274.055C226.813 273.938 226.585 273.779 226.397 273.577C226.208 273.376 226.062 273.137 225.958 272.861C225.854 272.584 225.802 272.29 225.802 271.978C225.802 271.62 225.868 271.297 226.002 271.008C226.135 270.719 226.317 270.47 226.548 270.262C226.779 270.054 227.05 269.893 227.362 269.779C227.675 269.665 228.012 269.608 228.376 269.608C228.734 269.608 229.07 269.665 229.386 269.779C229.701 269.893 229.974 270.054 230.205 270.262C230.436 270.47 230.618 270.719 230.751 271.008C230.884 271.297 230.951 271.621 230.951 271.978C230.951 272.225 230.928 272.451 230.883 272.656C230.837 272.861 230.777 273.054 230.702 273.236C230.628 273.418 230.54 273.592 230.439 273.758C230.338 273.924 230.233 274.094 230.122 274.27L228.611 276.63H226.826L228.444 274.162ZM227.264 272.036C227.264 272.348 227.366 272.607 227.571 272.812C227.776 273.017 228.045 273.119 228.376 273.119C228.708 273.119 228.976 273.017 229.181 272.812C229.386 272.607 229.488 272.348 229.488 272.036C229.488 271.724 229.386 271.466 229.181 271.261C228.976 271.056 228.708 270.954 228.376 270.954C228.045 270.954 227.776 271.056 227.571 271.261C227.366 271.466 227.264 271.724 227.264 272.036Z" fill="#6277D7"/>
<path d="M228.449 280.258H222.676C222.536 280.258 222.422 280.144 222.422 280.004C222.422 279.864 222.536 279.75 222.676 279.75H228.449C228.589 279.75 228.703 279.864 228.703 280.004C228.703 280.144 228.589 280.258 228.449 280.258Z" fill="#AEC3FF"/>
<path d="M254.125 219.719V238.611C254.125 239.277 253.585 239.818 252.918 239.818H230.207C229.541 239.818 229 239.277 229 238.611V219.719C229 219.052 229.541 218.512 230.207 218.512H252.918C253.585 218.512 254.125 219.052 254.125 219.719Z" fill="#FFD9E8"/>
<path d="M254.125 219.719V223.28H229V219.719C229 219.052 229.541 218.512 230.207 218.512H252.918C253.585 218.512 254.125 219.052 254.125 219.719Z" fill="#FE9ECC"/>
<path d="M235.809 220.024C235.465 220.024 235.186 219.745 235.186 219.401V217.623C235.186 217.279 235.465 217 235.809 217C236.154 217 236.432 217.279 236.432 217.623V219.401C236.432 219.745 236.154 220.024 235.809 220.024Z" fill="#FE9ECC"/>
<path d="M247.316 220.024C246.972 220.024 246.693 219.745 246.693 219.401V217.623C246.693 217.279 246.973 217 247.316 217C247.661 217 247.94 217.279 247.94 217.623V219.401C247.94 219.745 247.66 220.024 247.316 220.024Z" fill="#FE9ECC"/>
<path d="M236.175 232.079L238.857 229.67C238.993 229.547 239.13 229.407 239.266 229.251C239.403 229.095 239.471 228.913 239.471 228.705C239.471 228.471 239.387 228.288 239.217 228.154C239.048 228.021 238.85 227.954 238.623 227.954C238.349 227.954 238.137 228.039 237.984 228.208C237.831 228.377 237.745 228.585 237.725 228.832L236.263 228.724C236.282 228.367 236.357 228.056 236.487 227.793C236.617 227.53 236.789 227.31 237.004 227.135C237.218 226.959 237.47 226.828 237.759 226.74C238.049 226.652 238.362 226.608 238.7 226.608C239.012 226.608 239.305 226.652 239.578 226.74C239.851 226.828 240.088 226.958 240.29 227.13C240.491 227.303 240.649 227.519 240.763 227.779C240.877 228.039 240.934 228.341 240.934 228.685C240.934 228.906 240.911 229.106 240.865 229.285C240.82 229.464 240.756 229.626 240.675 229.773C240.594 229.919 240.498 230.054 240.387 230.177C240.277 230.301 240.157 230.421 240.027 230.538L237.93 232.343H240.992V233.63H236.174V232.079H236.175Z" fill="#FE9ECC"/>
<path d="M244.444 231.162C244.366 231.182 244.288 231.198 244.21 231.211C244.133 231.224 244.051 231.231 243.967 231.231C243.641 231.231 243.346 231.172 243.079 231.055C242.812 230.938 242.585 230.779 242.397 230.577C242.208 230.376 242.062 230.137 241.958 229.861C241.854 229.584 241.802 229.29 241.802 228.978C241.802 228.62 241.868 228.297 242.002 228.008C242.135 227.719 242.317 227.47 242.548 227.262C242.779 227.054 243.05 226.893 243.362 226.779C243.674 226.665 244.012 226.608 244.376 226.608C244.734 226.608 245.07 226.665 245.386 226.779C245.701 226.893 245.974 227.054 246.205 227.262C246.436 227.47 246.618 227.719 246.751 228.008C246.884 228.297 246.951 228.621 246.951 228.978C246.951 229.225 246.928 229.451 246.883 229.656C246.837 229.861 246.777 230.054 246.702 230.236C246.628 230.418 246.54 230.592 246.439 230.758C246.338 230.924 246.233 231.094 246.122 231.27L244.611 233.63H242.826L244.444 231.162ZM243.265 229.036C243.265 229.348 243.367 229.607 243.572 229.812C243.777 230.017 244.044 230.119 244.376 230.119C244.708 230.119 244.976 230.017 245.181 229.812C245.386 229.607 245.488 229.348 245.488 229.036C245.488 228.724 245.386 228.466 245.181 228.261C244.976 228.056 244.708 227.954 244.376 227.954C244.044 227.954 243.777 228.056 243.572 228.261C243.367 228.466 243.265 228.724 243.265 229.036Z" fill="#FE9ECC"/>
<path d="M244.449 237.258H238.676C238.536 237.258 238.422 237.144 238.422 237.004C238.422 236.864 238.536 236.75 238.676 236.75H244.449C244.59 236.75 244.703 236.864 244.703 237.004C244.703 237.144 244.59 237.258 244.449 237.258Z" fill="#FE9ECC"/>
<path d="M77.3654 294.134C83.3705 284.174 64.4143 279.491 59.8442 283.441C55.2741 287.392 70.4244 305.646 77.3654 294.134Z" fill="#FE9ECC"/>
<path d="M85.335 291.094C97.1191 291.094 91.7861 272 86.7478 272C80.4312 272 71.7199 291.094 85.335 291.094Z" fill="#FE9ECC"/>
<path d="M94.418 298.02C104.133 305.185 112.672 289.154 109.218 284.363C105.763 279.572 83.188 289.739 94.418 298.02Z" fill="#FE9ECC"/>
<path d="M82.0285 302.761C80.3887 299.324 77.9884 296.121 74.8948 293.242C69.6315 288.346 64.0957 286.049 64.0401 286.026C63.8752 285.959 63.6811 286.025 63.6067 286.174C63.5324 286.324 63.6057 286.5 63.7706 286.567C63.8247 286.589 69.2649 288.849 74.4418 293.671C77.4757 296.497 79.828 299.639 81.4329 303.008C81.6149 303.391 81.7843 303.777 81.9471 304.165H82.6475C82.4543 303.693 82.2495 303.224 82.0285 302.761Z" fill="#FF78BA"/>
<path d="M86.455 275.915C86.4762 275.753 86.3478 275.605 86.1683 275.586C85.9883 275.566 85.826 275.682 85.8042 275.845C85.783 276.007 84.1305 288.803 84.215 304.165H84.8698C84.7858 288.843 86.4338 276.077 86.455 275.915Z" fill="#FF78BA"/>
<path d="M105.945 286.508C105.844 286.372 105.641 286.335 105.491 286.426C105.444 286.455 100.717 289.335 95.854 294.072C93.2054 296.652 90.1948 300.111 87.9891 304.165H88.7213C90.8774 300.29 93.7707 296.974 96.3232 294.486C101.135 289.796 105.808 286.948 105.855 286.919C106.005 286.829 106.045 286.644 105.945 286.508Z" fill="#FF78BA"/>
<path d="M84.8703 304.165H84.2155H82.6475H81.9471H72.8065C72.4551 304.165 72.2058 304.476 72.3145 304.779L72.8915 306.383L73.1832 307.194L77.3604 318.804C77.4737 319.12 77.7983 319.333 78.1639 319.333H93.2206C93.5862 319.333 93.9108 319.12 94.0241 318.804L98.2017 307.194L98.4935 306.383L99.0704 304.779C99.1797 304.476 98.9304 304.165 98.5789 304.165H88.7198H87.9876H84.8703Z" fill="#D2DCFF"/>
<path d="M98.4945 306.382L98.2027 307.194H73.1837L72.892 306.382H98.4945Z" fill="#AEC3FF"/>
<path d="M356.796 243.335V242.623C356.796 242.403 356.616 242.225 356.394 242.225H339.731C338.89 242.225 338.209 242.9 338.209 243.733V244.947C338.209 245.78 338.89 246.455 339.731 246.455H356.394C356.616 246.455 356.796 246.277 356.796 246.057V245.345C356.796 245.125 356.616 244.947 356.394 244.947H340.343C340.005 244.947 339.73 244.675 339.73 244.34C339.73 244.005 340.005 243.733 340.343 243.733H356.394C356.616 243.733 356.796 243.555 356.796 243.335Z" fill="#6277D7"/>
<path d="M356.076 243.733V244.947H340.343C340.005 244.947 339.73 244.675 339.73 244.34C339.73 244.005 340.005 243.733 340.343 243.733H356.076V243.733Z" fill="#D2DCFF"/>
<path d="M355.606 239.104V238.392C355.606 238.172 355.425 237.994 355.204 237.994H340.921C340.08 237.994 339.398 238.669 339.398 239.502V240.716C339.398 241.549 340.08 242.224 340.921 242.224H355.204C355.425 242.224 355.606 242.046 355.606 241.826V241.114C355.606 240.894 355.425 240.715 355.204 240.715H341.534C341.195 240.715 340.922 240.443 340.922 240.108C340.922 239.773 341.196 239.501 341.534 239.501H355.204C355.425 239.502 355.606 239.323 355.606 239.104Z" fill="#FE9ECC"/>
<path d="M355.076 239.502V240.716H341.533C341.195 240.716 340.921 240.444 340.921 240.109C340.921 239.773 341.195 239.502 341.533 239.502H355.076V239.502Z" fill="#FFD9E8"/>
<path d="M343.5 249.248L334.67 320H332.917L341.747 249.248H343.5Z" fill="#D2DCFF"/>
<path d="M366.7 320H364.947L357.393 259.471L356.117 249.248H357.871L359.128 259.326L366.7 320Z" fill="#D2DCFF"/>
<path d="M255.583 249.248L253.221 268.177L246.753 320H245L251.449 268.326L253.83 249.248H255.583Z" fill="#D2DCFF"/>
<path d="M278.783 320H277.03L270.384 266.743L268.2 249.248H269.954L272.119 266.598L278.783 320Z" fill="#D2DCFF"/>
<path d="M253.83 249.248H255.583L253.221 268.177L251.449 268.326L253.83 249.248Z" fill="#AEC3FF"/>
<path d="M269.954 249.248L272.119 266.598L270.384 266.743L268.2 249.248H269.954Z" fill="#AEC3FF"/>
<path d="M359.128 259.326L357.393 259.471L356.117 249.248H357.871L359.128 259.326Z" fill="#AEC3FF"/>
<path d="M362.753 249.248H273.109V246.456H362.753C363.4 246.456 363.925 246.976 363.925 247.617V248.086C363.925 248.728 363.4 249.248 362.753 249.248Z" fill="#D2DCFF"/>
<path d="M273.109 249.248H249.39C248.743 249.248 248.218 248.728 248.218 248.086V247.617C248.218 246.976 248.743 246.456 249.39 246.456H273.109V249.248Z" fill="#86A2E2"/>
<path d="M273.089 239.666H280.953C281.341 239.666 281.641 240.002 281.595 240.384L280.93 245.891C280.891 246.213 280.615 246.456 280.288 246.456H273.755C273.427 246.456 273.151 246.213 273.112 245.891L272.447 240.384C272.401 240.002 272.702 239.666 273.089 239.666Z" fill="#D2DCFF"/>
<path d="M279.72 237.419V234.915L278.209 237.761V233.138L277.021 236.049L275.833 233.138V237.761L274.321 234.915V237.419L272.119 233.909L273.089 239.666H277.021H280.953L281.923 233.909L279.72 237.419Z" fill="#6277D7"/>
<path d="M336.426 239.303H287.232L292.717 210H341.911L336.426 239.303Z" fill="#D2DCFF"/>
<path d="M311.588 226.36H317.113L324.388 246.456H314.736L311.588 226.36Z" fill="#86A2E2"/>
<path d="M311.389 245.166H294.968C294.669 245.166 294.426 245.406 294.426 245.702V245.919C294.426 246.215 294.669 246.456 294.968 246.456H311.389C311.688 246.456 311.931 246.215 311.931 245.919V245.702C311.931 245.406 311.688 245.166 311.389 245.166Z" fill="#86A2E2"/>
<path d="M311.588 226.36V239.303H313.615L311.588 226.36Z" fill="#AEC3FF"/>
<g filter="url(#filter0_b)">
<rect width="375" height="320" fill="#AEC3FF" fill-opacity="0.1"/>
</g>
<path d="M341.901 51C341.901 64.2042 339.625 76.1347 335.965 84.7455C334.135 89.0519 331.969 92.5047 329.588 94.8735C327.21 97.2403 324.646 98.5 322 98.5C319.354 98.5 316.79 97.2403 314.412 94.8735C312.031 92.5047 309.865 89.0519 308.035 84.7455C304.375 76.1347 302.099 64.2042 302.099 51C302.099 37.7958 304.375 25.8653 308.035 17.2545C309.865 12.9481 312.031 9.49531 314.412 7.12649C316.79 4.75969 319.354 3.5 322 3.5C324.646 3.5 327.21 4.75969 329.588 7.12649C331.969 9.49531 334.135 12.9481 335.965 17.2545C339.625 25.8653 341.901 37.7958 341.901 51Z" stroke="#000577" stroke-opacity="0.1"/>
<circle cx="322.552" cy="51.4767" r="8.86068" stroke="#000577" stroke-opacity="0.1"/>
<path d="M322 70.9012C308.796 70.9012 296.865 68.6255 288.254 64.9657C283.948 63.1354 280.495 60.9689 278.126 58.5885C275.76 56.2102 274.5 53.6465 274.5 51.0003C274.5 48.3541 275.76 45.7903 278.126 43.412C280.495 41.0317 283.948 38.8651 288.254 37.0349C296.865 33.3751 308.796 31.0994 322 31.0994C335.204 31.0994 347.135 33.3751 355.746 37.0349C360.052 38.8651 363.505 41.0317 365.874 43.4121C368.24 45.7903 369.5 48.3541 369.5 51.0003C369.5 53.6465 368.24 56.2102 365.874 58.5885C363.505 60.9689 360.052 63.1354 355.746 64.9657C347.135 68.6255 335.204 70.9012 322 70.9012Z" stroke="#000577" stroke-opacity="0.1"/>
<path d="M336.118 65.0435C326.72 74.4419 316.617 81.3227 307.897 84.8606C303.535 86.63 299.544 87.5538 296.172 87.5546C292.803 87.5554 290.092 86.6368 288.219 84.7639C286.346 82.891 285.428 80.1798 285.428 76.811C285.429 73.4394 286.353 69.4477 288.122 65.0865C291.66 56.3661 298.541 46.263 307.94 36.8647C317.338 27.4663 327.441 20.5855 336.161 17.0475C340.523 15.2781 344.514 14.3544 347.886 14.3536C351.255 14.3528 353.966 15.2714 355.839 17.1443C357.712 19.0171 358.63 21.7284 358.629 25.0972C358.629 28.4687 357.705 32.4605 355.936 36.8217C352.398 45.542 345.517 55.6451 336.118 65.0435Z" stroke="#000577" stroke-opacity="0.1"/>
<path d="M307.939 65.0435C317.338 74.4419 327.441 81.3227 336.161 84.8606C340.522 86.63 344.514 87.5538 347.886 87.5546C351.255 87.5554 353.966 86.6368 355.839 84.7639C357.712 82.891 358.63 80.1798 358.629 76.811C358.629 73.4394 357.705 69.4477 355.935 65.0865C352.397 56.3661 345.517 46.263 336.118 36.8647C326.72 27.4663 316.617 20.5855 307.896 17.0475C303.535 15.2781 299.544 14.3544 296.172 14.3536C292.803 14.3528 290.092 15.2714 288.219 17.1443C286.346 19.0171 285.428 21.7284 285.428 25.0972C285.429 28.4687 286.353 32.4605 288.122 36.8217C291.66 45.542 298.541 55.6451 307.939 65.0435Z" stroke="#000577" stroke-opacity="0.1"/>
<path d="M328.822 51.4765C328.822 54.9396 326.015 57.747 322.552 57.747C319.088 57.747 316.281 54.9396 316.281 51.4765C316.281 48.0134 319.088 45.206 322.552 45.206C326.015 45.206 328.822 48.0134 328.822 51.4765Z" fill="#A8ABFF"/>
<path d="M296 67C296 68.6569 294.657 70 293 70C291.343 70 290 68.6569 290 67C290 65.3431 291.343 64 293 64C294.657 64 296 65.3431 296 67Z" fill="#A8ABFF"/>
<path d="M319 21C319 22.6569 317.657 24 316 24C314.343 24 313 22.6569 313 21C313 19.3431 314.343 18 316 18C317.657 18 319 19.3431 319 21Z" fill="#A8ABFF"/>
<path d="M335 92C335 93.6569 333.657 95 332 95C330.343 95 329 93.6569 329 92C329 90.3431 330.343 89 332 89C333.657 89 335 90.3431 335 92Z" fill="#A8ABFF"/>
<path d="M355 45C355 46.6569 353.657 48 352 48C350.343 48 349 46.6569 349 45C349 43.3431 350.343 42 352 42C353.657 42 355 43.3431 355 45Z" fill="#A8ABFF"/>
<defs>
<filter id="filter0_b" x="-2" y="-2" width="379" height="324" filterUnits="userSpaceOnUse" color-interpolation-filters="sRGB">
<feFlood flood-opacity="0" result="BackgroundImageFix"/>
<feGaussianBlur in="BackgroundImage" stdDeviation="1"/>
<feComposite in2="SourceAlpha" operator="in" result="effect1_backgroundBlur"/>
<feBlend mode="normal" in="SourceGraphic" in2="effect1_backgroundBlur" result="shape"/>
</filter>
</defs>
</svg>
